<svg xmlns="http://www.w3.org/2000/svg" width="6907.3" height="1024" version="1.1" viewBox="0 0 6907.3 1024"><text style="line-height:1.25" x="1178.922" y="718.373" fill="#8f918f" font-family="sans-serif" font-size="628" xml:space="preserve"><tspan x="1178.922" y="718.373" fill="#8f918f" font-family="'Segoe UI'" font-size="628" font-weight="300">Qt Advanced Docking</tspan></text><g><path style="mix-blend-mode:normal" fill="#e0e0e0" d="m191.64-726.53h-521.75c-138.69 0-251.12-112.43-251.12-251.12v-521.75c0-138.69 112.43-251.12 251.12-251.12h521.75c138.69 0 251.12 112.43 251.12 251.12v521.75c0 138.69-112.43 251.12-251.12 251.12z" transform="translate(581.23 1750.5)"/><path style="mix-blend-mode:normal" fill="#009ddd" d="m-175.9-1515.9v256h469.33v-256z" transform="translate(581.23 1750.5)"/><path style="mix-blend-mode:normal" fill="#ff9833" d="m80.1-1217.2v256h213.33v-256z" transform="translate(581.23 1750.5)"/><path style="mix-blend-mode:normal" fill="#accb01" d="m-175.9-1217.2v256h213.33v-256z" transform="translate(581.23 1750.5)"/><path style="mix-blend-mode:normal" fill="#0083c3" d="m-431.9-1515.9v554.67h213.33v-554.67z" transform="translate(581.23 1750.5)"/></g></svg>