<svg xmlns="http://www.w3.org/2000/svg" xmlns:svg="http://www.w3.org/2000/svg" id="Layer_1" width="16" height="16" x="0" y="0" enable-background="new 0 0 122.879 122.867" version="1.1" viewBox="0 0 16 16" xml:space="preserve"><metadata id="metadata53"/><g id="g46" transform="matrix(0.08138071,0,0,0.08138898,3.0000001,2.99998)"><path id="path44" fill-rule="evenodd" d="M 83.88,0.451 122.427,39 c 0.603,0.601 0.603,1.585 0,2.188 l -13.128,13.125 c -0.602,0.604 -1.586,0.604 -2.187,0 l -3.732,-3.73 -17.303,17.3 c 3.882,14.621 0.095,30.857 -11.37,42.32 -0.266,0.268 -0.535,0.529 -0.808,0.787 -1.004,0.955 -0.843,0.949 -1.813,-0.021 L 47.597,86.48 0,122.867 36.399,75.283 11.874,50.76 C 10.896,49.78 10.978,49.934 11.94,48.923 12.18,48.672 12.425,48.42 12.674,48.17 24.137,36.707 40.376,32.917 54.996,36.8 L 72.297,19.5 68.564,15.768 c -0.601,-0.601 -0.601,-1.585 0,-2.188 L 81.691,0.451 c 0.604,-0.601 1.588,-0.601 2.189,0 z" clip-rule="evenodd"/></g></svg>